<svg width="24" height="24" viewBox="0 0 24 24" fill="none" xmlns="http://www.w3.org/2000/svg">
<path d="M15.8828 0H4.17969C3.07157 0.00132735 2.00922 0.442112 1.22567 1.22567C0.442112 2.00922 0.00132735 3.07157 0 4.17969V15.8828C0.00132735 16.9909 0.442112 18.0533 1.22567 18.8368C2.00922 19.6204 3.07157 20.0612 4.17969 20.0625H15.8828C16.9909 20.0612 18.0533 19.6204 18.8368 18.8368C19.6204 18.0533 20.0612 16.9909 20.0625 15.8828V4.17969C20.0612 3.07157 19.6204 2.00922 18.8368 1.22567C18.0533 0.442112 16.9909 0.00132735 15.8828 0ZM4.17969 1.67188H15.8828C16.5479 1.67188 17.1858 1.93609 17.6561 2.4064C18.1264 2.8767 18.3906 3.51457 18.3906 4.17969V15.8828C18.3892 16.2552 18.3034 16.6225 18.1398 16.957L10.4801 9.2973C10.092 8.90906 9.6312 8.60109 9.12403 8.39097C8.61685 8.18085 8.07325 8.07271 7.52427 8.07271C6.9753 8.07271 6.4317 8.18085 5.92452 8.39097C5.41735 8.60109 4.95653 8.90906 4.5684 9.2973L1.67188 12.193V4.17969C1.67188 3.51457 1.93609 2.8767 2.4064 2.4064C2.8767 1.93609 3.51457 1.67188 4.17969 1.67188ZM4.17969 18.3906C3.51457 18.3906 2.8767 18.1264 2.4064 17.6561C1.93609 17.1858 1.67188 16.5479 1.67188 15.8828V14.557L5.74958 10.4793C5.98247 10.2463 6.259 10.0614 6.56337 9.93527C6.86773 9.80914 7.19397 9.74422 7.52344 9.74422C7.8529 9.74422 8.17914 9.80914 8.48351 9.93527C8.78787 10.0614 9.0644 10.2463 9.2973 10.4793L16.957 18.1398C16.6225 18.3034 16.2552 18.3892 15.8828 18.3906H4.17969Z" fill="#1D222B"/>
<path fill-rule="evenodd" clip-rule="evenodd" d="M4.17969 1.67188H15.8828C16.5479 1.67188 17.1858 1.93609 17.6561 2.4064C18.1264 2.8767 18.3906 3.51457 18.3906 4.17969V15.8828C18.3892 16.2552 18.3034 16.6225 18.1398 16.957L10.4801 9.2973C10.092 8.90906 9.6312 8.60109 9.12403 8.39097C8.61685 8.18085 8.07325 8.07271 7.52427 8.07271C6.9753 8.07271 6.4317 8.18085 5.92452 8.39097C5.41735 8.60109 4.95653 8.90906 4.5684 9.2973L1.67188 12.193V4.17969C1.67188 3.51457 1.93609 2.8767 2.4064 2.4064C2.8767 1.93609 3.51457 1.67188 4.17969 1.67188ZM13.3751 8.77705C13.9538 8.77705 14.5195 8.60546 15.0006 8.28397C15.4817 7.96248 15.8567 7.50554 16.0782 6.97092C16.2996 6.4363 16.3576 5.84803 16.2447 5.28048C16.1318 4.71293 15.8531 4.19161 15.444 3.78243C15.0348 3.37325 14.5135 3.0946 13.9459 2.98171C13.3784 2.86882 12.7901 2.92676 12.2555 3.1482C11.7209 3.36965 11.2639 3.74465 10.9424 4.22579C10.6209 4.70694 10.4493 5.27261 10.4493 5.85127C10.4493 6.62724 10.7576 7.37142 11.3063 7.92011C11.855 8.4688 12.5992 8.77705 13.3751 8.77705Z" fill="#1D222B"/>
</svg>
