<svg width="24" height="25" viewBox="0 0 24 25" fill="none" xmlns="http://www.w3.org/2000/svg">
<path d="M19 0.03125H5C3.67441 0.0328379 2.40356 0.560132 1.46622 1.49747C0.528882 2.43481 0.00158786 3.70566 0 5.03125V19.0312C0.00158786 20.3568 0.528882 21.6277 1.46622 22.565C2.40356 23.5024 3.67441 24.0297 5 24.0313H19C20.3256 24.0297 21.5964 23.5024 22.5338 22.565C23.4711 21.6277 23.9984 20.3568 24 19.0312V5.03125C23.9984 3.70566 23.4711 2.43481 22.5338 1.49747C21.5964 0.560132 20.3256 0.0328379 19 0.03125ZM5 2.03125H19C19.7956 2.03125 20.5587 2.34732 21.1213 2.90993C21.6839 3.47254 22 4.2356 22 5.03125V19.0312C21.9983 19.4767 21.8957 19.9161 21.7 20.3162L12.537 11.1532C12.0727 10.6888 11.5214 10.3204 10.9147 10.069C10.308 9.81769 9.65772 9.68832 9.001 9.68832C8.34428 9.68832 7.69399 9.81769 7.08728 10.069C6.48056 10.3204 5.92931 10.6888 5.465 11.1532L2 14.6173V5.03125C2 4.2356 2.31607 3.47254 2.87868 2.90993C3.44129 2.34732 4.20435 2.03125 5 2.03125ZM5 22.0312C4.20435 22.0312 3.44129 21.7152 2.87868 21.1526C2.31607 20.59 2 19.8269 2 19.0312V17.4452L6.878 12.5673C7.1566 12.2885 7.4874 12.0673 7.85151 11.9164C8.21561 11.7656 8.60587 11.6879 9 11.6879C9.39413 11.6879 9.78439 11.7656 10.1485 11.9164C10.5126 12.0673 10.8434 12.2885 11.122 12.5673L20.285 21.7313C19.8848 21.927 19.4455 22.0295 19 22.0312H5Z" fill="#1D222B"/>
<path fill-rule="evenodd" clip-rule="evenodd" d="M5 2.03125H19C19.7956 2.03125 20.5587 2.34732 21.1213 2.90993C21.6839 3.47254 22 4.2356 22 5.03125V19.0312C21.9983 19.4767 21.8957 19.9161 21.7 20.3162L12.537 11.1532C12.0727 10.6888 11.5214 10.3204 10.9147 10.069C10.308 9.81769 9.65772 9.68832 9.001 9.68832C8.34428 9.68832 7.69399 9.81769 7.08728 10.069C6.48056 10.3204 5.92931 10.6888 5.465 11.1532L2 14.6173V5.03125C2 4.2356 2.31607 3.47254 2.87868 2.90993C3.44129 2.34732 4.20435 2.03125 5 2.03125ZM16.0001 10.5309C16.6924 10.5309 17.3691 10.3256 17.9446 9.94104C18.5202 9.55646 18.9688 9.00983 19.2337 8.37029C19.4986 7.73075 19.5679 7.02702 19.4329 6.34809C19.2978 5.66915 18.9645 5.04551 18.475 4.55603C17.9855 4.06654 17.3619 3.7332 16.683 3.59815C16.004 3.4631 15.3003 3.53242 14.6608 3.79732C14.0212 4.06223 13.4746 4.51083 13.09 5.08641C12.7054 5.66198 12.5001 6.33867 12.5001 7.0309C12.5001 7.95916 12.8689 8.8494 13.5253 9.50578C14.1816 10.1622 15.0719 10.5309 16.0001 10.5309Z" fill="#1D222B"/>
</svg>
