<svg width="24" height="24" viewBox="0 0 24 24" fill="none" xmlns="http://www.w3.org/2000/svg">
<path d="M20.6661 6.06407L13.5073 1.90391C13.0492 1.63838 12.5291 1.49854 11.9996 1.49854C11.4701 1.49854 10.95 1.63838 10.4919 1.90391L3.33358 6.06407C3.30539 6.08061 3.28201 6.10424 3.26576 6.13261C3.24951 6.16098 3.24097 6.1931 3.24097 6.22579C3.24097 6.25848 3.24951 6.2906 3.26576 6.31897C3.28201 6.34734 3.30539 6.37097 3.33358 6.38751L11.9061 11.4303C11.9349 11.4473 11.9678 11.4563 12.0012 11.4563C12.0347 11.4563 12.0676 11.4473 12.0964 11.4303L20.667 6.38751C20.6952 6.37088 20.7185 6.34719 20.7346 6.31877C20.7508 6.29036 20.7593 6.25821 20.7592 6.22552C20.7591 6.19283 20.7504 6.16073 20.7341 6.13241C20.7178 6.10409 20.6943 6.08053 20.6661 6.06407ZM11.9998 7.12485C11.3787 7.12485 10.8748 6.78923 10.8748 6.37485C10.8748 5.96048 11.3787 5.62485 11.9998 5.62485C12.6209 5.62485 13.1248 5.96048 13.1248 6.37485C13.1248 6.78923 12.6209 7.12485 11.9998 7.12485Z" fill="#A5A9BE"/>
<path d="M11.1553 12.6944L2.53027 7.6633C2.50178 7.64685 2.46947 7.63819 2.43657 7.63818C2.40367 7.63818 2.37135 7.64682 2.34286 7.66326C2.31436 7.67969 2.29069 7.70333 2.27422 7.73181C2.25775 7.76029 2.24906 7.79259 2.24902 7.82549V15.978C2.24973 16.3708 2.35326 16.7566 2.54931 17.0969C2.74536 17.4373 3.02711 17.7204 3.36652 17.9181L10.9678 22.4758C10.9963 22.4923 11.0286 22.5009 11.0615 22.5009C11.0944 22.5009 11.1267 22.4923 11.1552 22.4759C11.1837 22.4594 11.2074 22.4358 11.2238 22.4073C11.2403 22.3788 11.249 22.3465 11.249 22.3136V12.8566C11.249 12.8237 11.2403 12.7914 11.2239 12.7629C11.2074 12.7345 11.1837 12.7108 11.1553 12.6944ZM4.49902 17.2502C4.08465 17.2502 3.74902 16.7463 3.74902 16.1252C3.74902 15.5041 4.08465 15.0002 4.49902 15.0002C4.9134 15.0002 5.24902 15.5041 5.24902 16.1252C5.24902 16.7463 4.9134 17.2502 4.49902 17.2502ZM8.99902 15.7502C8.58465 15.7502 8.24902 15.2463 8.24902 14.6252C8.24902 14.0041 8.58465 13.5002 8.99902 13.5002C9.4134 13.5002 9.74902 14.0041 9.74902 14.6252C9.74902 15.2463 9.4134 15.7502 8.99902 15.7502Z" fill="#A5A9BE"/>
<path d="M21.4675 7.66477L12.8425 12.7296C12.8141 12.746 12.7905 12.7696 12.7741 12.798C12.7576 12.8263 12.7489 12.8585 12.7488 12.8913V22.3127C12.7488 22.3456 12.7575 22.3779 12.774 22.4064C12.7904 22.4349 12.8141 22.4585 12.8426 22.475C12.8711 22.4914 12.9034 22.5001 12.9363 22.5C12.9692 22.5 13.0015 22.4914 13.03 22.4749L20.6308 17.9173C20.9702 17.7197 21.2519 17.4368 21.4481 17.0965C21.6442 16.7563 21.7479 16.3707 21.7488 15.9781V7.82836C21.749 7.79535 21.7405 7.76286 21.7241 7.73419C21.7077 7.70552 21.6841 7.68167 21.6556 7.66507C21.627 7.64847 21.5946 7.6397 21.5616 7.63965C21.5286 7.6396 21.4961 7.64826 21.4675 7.66477ZM14.9988 19.8752C14.5844 19.8752 14.2488 19.3713 14.2488 18.7502C14.2488 18.1291 14.5844 17.6252 14.9988 17.6252C15.4132 17.6252 15.7488 18.1291 15.7488 18.7502C15.7488 19.3713 15.4132 19.8752 14.9988 19.8752ZM14.9988 15.7502C14.5844 15.7502 14.2488 15.2463 14.2488 14.6252C14.2488 14.0041 14.5844 13.5002 14.9988 13.5002C15.4132 13.5002 15.7488 14.0041 15.7488 14.6252C15.7488 15.2463 15.4132 15.7502 14.9988 15.7502ZM19.4988 17.2502C19.0844 17.2502 18.7488 16.7463 18.7488 16.1252C18.7488 15.5041 19.0844 15.0002 19.4988 15.0002C19.9132 15.0002 20.2488 15.5041 20.2488 16.1252C20.2488 16.7463 19.9132 17.2502 19.4988 17.2502ZM19.4988 13.1252C19.0844 13.1252 18.7488 12.6213 18.7488 12.0002C18.7488 11.3791 19.0844 10.8752 19.4988 10.8752C19.9132 10.8752 20.2488 11.3791 20.2488 12.0002C20.2488 12.6213 19.9132 13.1252 19.4988 13.1252Z" fill="#A5A9BE"/>
</svg>
