<svg width="24" height="24" viewBox="0 0 24 24" fill="none" xmlns="http://www.w3.org/2000/svg">
<g clip-path="url(#clip0_250_703)">
<path d="M22 21.0066C22 21.2718 21.8947 21.5262 21.7071 21.7137C21.5196 21.9013 21.2652 22.0066 21 22.0066H17V18.0726C17 16.7465 16.4732 15.4748 15.5355 14.5371C14.5979 13.5994 13.3261 13.0726 12 13.0726C10.6739 13.0726 9.40216 13.5994 8.46448 14.5371C7.5268 15.4748 7.00001 16.7465 7.00001 18.0726V22.0066H3.00001C2.7348 22.0066 2.48044 21.9013 2.29291 21.7137C2.10537 21.5262 2.00001 21.2718 2.00001 21.0066V11.1896C2.00094 10.9246 2.1062 10.6706 2.29301 10.4826L9.87801 2.89962C10.4417 2.33855 11.2047 2.02356 12 2.02356C12.7953 2.02356 13.5583 2.33855 14.122 2.89962L21.707 10.4856C21.8931 10.6729 21.9983 10.9256 22 11.1896V21.0066Z" fill="#1D222B"/>
<path fill-rule="evenodd" clip-rule="evenodd" d="M15.536 1.48262L23.121 9.06862C23.4006 9.34641 23.6222 9.67692 23.7731 10.041C23.924 10.4051 24.0011 10.7955 24 11.1896V21.0066C24 21.8023 23.6839 22.5653 23.1213 23.1279C22.5587 23.6906 21.7957 24.0066 21 24.0066H16.433C15.6416 24.0066 15 23.365 15 22.5736V22.0066V18.0726C15 17.277 14.6839 16.5139 14.1213 15.9513C13.5587 15.3887 12.7957 15.0726 12 15.0726C11.2044 15.0726 10.4413 15.3887 9.87869 15.9513C9.31608 16.5139 9.00001 17.277 9.00001 18.0726V22.0066V22.5736C9.00001 23.365 8.35842 24.0066 7.56698 24.0066H3.00001C2.20436 24.0066 1.4413 23.6906 0.878692 23.1279C0.316083 22.5653 1.20795e-05 21.8023 1.20795e-05 21.0066V11.1896C-0.0011104 10.7955 0.0760072 10.4051 0.226895 10.041C0.377782 9.67692 0.599437 9.34641 0.879012 9.06862L8.46401 1.48262C9.40277 0.546611 10.6744 0.0209961 12 0.0209961C13.3257 0.0209961 14.5973 0.546611 15.536 1.48262ZM21.7071 21.7137C21.8947 21.5262 22 21.2718 22 21.0066V11.1896C21.9983 10.9256 21.8931 10.6729 21.707 10.4856L14.122 2.89962C13.5583 2.33855 12.7953 2.02356 12 2.02356C11.2047 2.02356 10.4417 2.33855 9.87801 2.89962L2.29301 10.4826C2.1062 10.6706 2.00094 10.9246 2.00001 11.1896V21.0066C2.00001 21.2718 2.10537 21.5262 2.29291 21.7137C2.48044 21.9013 2.7348 22.0066 3.00001 22.0066H7.00001V18.0726C7.00001 16.7465 7.5268 15.4748 8.46448 14.5371C9.40216 13.5994 10.6739 13.0726 12 13.0726C13.3261 13.0726 14.5979 13.5994 15.5355 14.5371C16.4732 15.4748 17 16.7465 17 18.0726V22.0066H21C21.2652 22.0066 21.5196 21.9013 21.7071 21.7137Z" fill="#1D222B"/>
</g>
<defs>
<clipPath id="clip0_250_703">
<rect width="24" height="24" fill="white"/>
</clipPath>
</defs>
</svg>
